<?xml version="1.0" standalone="no"?>
<!DOCTYPE svg PUBLIC "-//W3C//DTD SVG 1.1//EN" "http://www.w3.org/Graphics/SVG/1.1/DTD/svg11.dtd" >
<svg xmlns="http://www.w3.org/2000/svg">
<metadata>Generated by IcoMoon</metadata>
<defs>
<font id="iconfont" horiz-adv-x="1024">
<font-face units-per-em="1024" ascent="960" descent="-64" />
<missing-glyph horiz-adv-x="1024" />
<glyph unicode="&#x20;" horiz-adv-x="512" d="" />
<glyph unicode="&#xe900;" glyph-name="arrow-down" horiz-adv-x="1025" d="M5.351 434.237c0-7.156 2.729-14.309 8.188-19.77l447.076-447.074c29.070-29.070 76.37-29.070 105.44 0 0.141 0.141 0.281 0.284 0.418 0.428l443.985 463.419c10.681 11.15 10.304 28.849-0.847 39.532s-28.849 10.304-39.532-0.847l-443.733-463.157c-3.501-3.416-8.113-5.294-13.013-5.294-4.978 0-9.66 1.94-13.179 5.46l-447.074 447.074c-10.919 10.918-28.621 10.918-39.54 0-5.459-5.459-8.19-12.616-8.19-19.77z" />
<glyph unicode="&#xe901;" glyph-name="attachment" d="M429.15-24.248l463.963 472.248c165.701 165.701 74.565 339.687 0 405.967-74.565 74.565-248.551 165.701-414.252 0l-405.967-405.967c-115.991-115.991-49.71-240.266 0-289.977s173.986-115.991 289.977 0l405.967 405.967c33.14 33.14 41.425 66.28 41.425 82.85 0 49.71-33.14 82.85-41.425 91.135-33.14 33.14-107.706 66.28-173.986 0l-405.967-405.967c-16.57-16.57-16.57-41.425 0-57.995s41.425-16.57 57.995 0l405.967 405.967c24.855 24.855 41.425 16.57 57.995 0 0 0 33.14-24.855 0-57.995l-405.967-405.967c-82.85-82.85-157.416-16.57-173.986 0s-82.85 91.135 0 173.986l405.967 405.967c140.846 140.846 281.692 16.57 289.977 0 16.57-16.57 140.846-149.131 0-289.977l-455.677-472.248c-16.57-16.57-16.57-41.425 0-57.995s41.425-16.57 57.995 0v0 0c0 0 0 0 0 0s0 0 0 0z" />
<glyph unicode="&#xe902;" glyph-name="camera" d="M94.549 788.423h109.34v-40.050h-109.34zM912.043 715.378h-133.916c-13.653 0-26.396 6.827-33.906 18.204l-57.344 86.016c-7.509 11.378-20.252 18.204-33.906 18.204h-282.283c-13.653 0-26.396-6.827-33.906-18.204l-57.23-86.016c-7.509-11.378-20.252-18.204-33.906-18.204h-133.689c-60.416 0-109.34-49.038-109.34-109.34v-438.386c0-60.416 49.038-109.34 109.34-109.34h800.085c60.416 0 109.34 49.038 109.34 109.34v438.386c0 60.302-48.924 109.34-109.34 109.34zM512 138.866c-129.138 0-234.382 105.017-234.382 234.382 0 129.138 105.131 234.382 234.382 234.382 129.138 0 234.382-105.131 234.382-234.382s-105.244-234.382-234.382-234.382zM845.028 608.654c0-17.977-14.564-32.427-32.54-32.54h-0.569c-17.977 0-32.54 14.564-32.54 32.54v0.569c0 17.977 14.564 32.54 32.54 32.54h0.569c17.977 0 32.54-14.564 32.54-32.54v-0.569zM512 543.4c-89 0-161.2-72.2-161.2-161.2 0-89.1 72.2-161.2 161.2-161.2 89.1 0 161.2 72.1 161.2 161.2 0 89-72.1 161.2-161.2 161.2z" />
<glyph unicode="&#xe903;" glyph-name="checkbox-checked" d="M910.234 960h-796.467c-62.753-0.193-113.573-51.013-113.766-113.748v-796.486c0-62.566 51.2-113.766 113.766-113.766h796.467c62.566 0 113.766 51.2 113.766 113.766v796.467c0 62.566-51.2 113.766-113.766 113.766zM398.234 163.567l-284.467 284.433 79.667 79.633 204.8-204.8 432.333 432.367 79.667-79.633-512-512z" />
<glyph unicode="&#xe904;" glyph-name="checkbox" d="M844.66 900c65.878-0.080 119.26-53.462 119.34-119.332v-665.328c-0.080-65.878-53.462-119.26-119.332-119.34h-665.328c-65.878 0.080-119.26 53.462-119.34 119.332v665.328c0.080 65.878 53.462 119.26 119.332 119.34h665.328zM844.66 960h-665.32c-0.006 0-0.013 0-0.020 0-99.036 0-179.32-80.284-179.32-179.32 0-0.007 0-0.014 0-0.021v0.001-665.32c0-99.047 80.293-179.34 179.34-179.34v0h665.32c99.047 0 179.34 80.293 179.34 179.34v0 665.32c0 0.006 0 0.013 0 0.020 0 99.036-80.284 179.32-179.32 179.32-0.007 0-0.014 0-0.021 0h0.001z" />
<glyph unicode="&#xe905;" glyph-name="close-fill" d="M512 945.103c-273.406 0-497.103-223.696-497.103-497.103s223.696-497.103 497.103-497.103 497.103 223.696 497.103 497.103-223.696 497.103-497.103 497.103zM719.126 298.869c16.57-16.57 16.57-41.425 0-57.995s-41.425-16.57-57.995 0l-149.131 149.131-149.131-149.131c-16.57-16.57-41.425-16.57-57.995 0s-16.57 41.425 0 57.995l149.131 149.131-149.131 149.131c-16.57 16.57-16.57 41.425 0 57.995s41.425 16.57 57.995 0l149.131-149.131 149.131 149.131c16.57 16.57 41.425 16.57 57.995 0s16.57-41.425 0-57.995l-149.131-149.131 149.131-149.131z" />
<glyph unicode="&#xe906;" glyph-name="close" d="M583.189 446.039l416.779 414.617c19.708 19.607 19.808 51.381 0.201 71.089-19.657 19.758-51.381 19.808-71.089 0.201l-416.879-414.667-413.26 414.516c-19.557 19.607-51.381 19.708-71.089 0.101-19.657-19.607-19.708-51.431-0.101-71.139l413.159-414.416-416.578-414.366c-19.708-19.607-19.808-51.381-0.201-71.089 9.804-9.854 22.724-14.831 35.645-14.831 12.82 0 25.64 4.877 35.444 14.63l416.678 414.466 417.030-418.287c9.804-9.854 22.674-14.781 35.595-14.781 12.87 0 25.69 4.927 35.494 14.68 19.657 19.607 19.708 51.381 0.101 71.089l-416.93 418.186z" />
<glyph unicode="&#xe907;" glyph-name="delete" d="M843.402 613.701c-24.855 0-41.425-16.57-41.425-41.425v-488.818c0-33.14-24.855-49.71-49.71-49.71h-480.533c-33.14 0-49.71 24.855-49.71 49.71v488.818c0 24.855-16.57 41.425-41.425 41.425s-41.425-16.57-41.425-41.425v-488.818c0-74.565 57.995-132.561 132.561-132.561h472.248c74.565 0 132.561 57.995 132.561 132.561v488.818c8.285 24.855-8.285 41.425-33.14 41.425zM445.72 158.023v414.252c0 24.855-16.57 41.425-33.14 41.425s-49.71-16.57-49.71-41.425v-414.252c0-24.855 16.57-41.425 41.425-41.425s41.425 16.57 41.425 41.425zM661.131 158.023v414.252c0 24.855-24.855 41.425-49.71 41.425s-33.14-16.57-33.14-41.425v-414.252c0-24.855 16.57-41.425 33.14-41.425s49.71 16.57 49.71 41.425zM926.252 779.402h-207.126v57.995c0 57.995-49.71 107.706-107.706 107.706h-198.841c-57.995 0-107.706-49.71-107.706-107.706v-57.995h-207.126c-24.855 0-41.425-16.57-41.425-41.425s16.57-41.425 41.425-41.425h828.504c24.855 0 41.425 16.57 41.425 41.425s-16.57 41.425-41.425 41.425zM387.724 837.397c0 16.57 8.285 24.855 24.855 24.855h198.841c16.57 0 24.855-8.285 24.855-24.855v-57.995h-248.551v57.995z" />
<glyph unicode="&#xe908;" glyph-name="download" d="M346.299 530.85v414.252h331.402v-414.252h248.551l-414.252-414.252-414.252 414.252h248.551zM97.748 33.748h828.504v-82.85h-828.504v82.85z" />
<glyph unicode="&#xe909;" glyph-name="fail" d="M512 948.622c276.48 0 500.622-224.142 500.622-500.622s-224.142-500.622-500.622-500.622-500.622 224.142-500.622 500.622 224.142 500.622 500.622 500.622zM512 880.356c-238.774 0-432.356-193.582-432.356-432.356s193.582-432.356 432.356-432.356 432.356 193.582 432.356 432.356-193.582 432.356-432.356 432.356zM400.27 607.289c0.002 0 0.005 0 0.007 0 2.512 0 4.786-1.017 6.433-2.662v0l105.29-105.267 105.267 105.267c1.647 1.645 3.921 2.662 6.433 2.662 0.003 0 0.005 0 0.008 0h70.769c0.002 0 0.005 0 0.007 0 5.027 0 9.102-4.075 9.102-9.102 0-2.515-1.020-4.792-2.669-6.44v0l-140.629-140.652 146.819-146.842c1.649-1.648 2.67-3.925 2.67-6.44 0-5.027-4.075-9.102-9.102-9.102-0.003 0-0.005 0-0.008 0h-70.769c-0.002 0-0.005 0-0.007 0-2.512 0-4.786 1.017-6.433 2.662v0l-111.457 111.457-111.479-111.457c-1.647-1.645-3.921-2.662-6.433-2.662-0.003 0-0.005 0-0.008 0h-70.769c-5.020 0.009-9.087 4.081-9.087 9.102 0 2.515 1.020 4.792 2.669 6.44v0l146.842 146.842-140.652 140.652c-1.649 1.648-2.67 3.925-2.67 6.44 0 5.022 4.066 9.093 9.086 9.102h70.771z" />
<glyph unicode="&#xe90a;" glyph-name="hint" d="M511.15-35.753c-0.185 0-0.405 0-0.624 0-133.634 0-254.592 54.275-342.032 141.983l-0.012 0.012c-87.684 87.447-141.934 208.38-141.934 341.984 0 0.198 0 0.397 0 0.595v-0.032c0 0.193 0 0.421 0 0.649 0 133.626 54.275 254.576 141.982 342.007l0.013 0.013c87.453 87.72 208.41 141.995 342.044 141.995 0.177 0 0.353 0 0.53 0h-0.027c0.185 0 0.405 0 0.624 0 133.634 0 254.592-54.275 342.032-141.983l0.012-0.012c87.72-87.453 141.995-208.41 141.995-342.044 0-0.198 0-0.396 0-0.594v0.031c0-0.185 0-0.405 0-0.624 0-133.634-54.275-254.592-141.983-342.032l-0.012-0.012c-87.453-87.721-208.41-141.995-342.044-141.995-0.219 0-0.439 0-0.658 0h0.034zM511.15 864.639c-111.047 0-215.419-43.266-294.002-121.788-75.231-74.828-121.789-178.418-121.789-292.882 0-0.394 0.001-0.788 0.002-1.181v0.061c0-111.047 43.266-215.48 121.788-294.002 74.828-75.231 178.418-121.789 292.882-121.789 0.394 0 0.788 0.001 1.181 0.002h-0.061c111.047 0 215.48 43.266 294.002 121.788 75.231 74.828 121.789 178.418 121.789 292.882 0 0.394-0.001 0.788-0.002 1.181v-0.061c0 111.047-43.266 215.419-121.788 294.002-74.828 75.231-178.418 121.789-292.882 121.789-0.394 0-0.788-0.001-1.181-0.002h0.061zM511.15 751.468c16.748 0 39.928-14.564 39.928-34.164v-353.955c0-19.539-23.18-35.013-39.928-35.013s-39.928 15.474-39.928 35.013v353.955c0 19.6 23.18 34.164 39.928 34.164zM516.49 148.294c-33.513 0-60.681 27.168-60.681 60.681s27.168 60.681 60.681 60.681v0c33.513 0 60.681-27.168 60.681-60.681s-27.168-60.681-60.681-60.681v0z" />
<glyph unicode="&#xe90b;" glyph-name="hook" horiz-adv-x="1040" d="M1007.518 764.501c-21.887 21.893-57.401 21.893-79.303 0l-515.355-515.361-317.149 317.137c-21.884 21.904-57.398 21.904-79.286 0-21.899-21.887-21.899-57.387 0-79.281l356.785-356.788c21.902-21.904 57.401-21.904 79.303 0l555.005 555c21.901 21.894 21.901 57.393 0 79.292z" />
<glyph unicode="&#xe90c;" glyph-name="idcard" d="M928 32h-832c-53.019 0-96 42.981-96 96v0 640c0 53.019 42.981 96 96 96v0h832c53.019 0 96-42.981 96-96v0-640c0-53.019-42.981-96-96-96v0zM960 768c0 17.673-14.327 32-32 32v0h-832c-17.673 0-32-14.327-32-32v0-640c0-17.673 14.327-32 32-32v0h832c17.673 0 32 14.327 32 32v0 640zM608 416h288v-64h-288v64zM608 576h160v-64h-160v64zM448 288c0 70.692-57.308 128-128 128s-128-57.308-128-128v0-32h-64v32c0.195 71.919 40.075 134.48 98.888 166.958l0.984 0.498c-22.186 22.986-35.856 54.319-35.856 88.845 0 70.692 57.308 128 128 128s128-57.308 128-128c0-34.526-13.67-65.859-35.892-88.883l0.036 0.038c59.784-32.984 99.651-95.543 99.84-167.43v-32.026h-64v32zM320 608c-35.346 0-64-28.654-64-64s28.654-64 64-64c35.346 0 64 28.654 64 64v0c0 35.346-28.654 64-64 64v0z" />
<glyph unicode="&#xe90d;" glyph-name="message" d="M933.287 884.907h-842.575c-38.775 0-70.233-31.457-70.233-70.233v-561.644c0-38.775 31.457-70.233 70.233-70.233h70.124v-210.644l280.876 210.644h491.52c38.775 0 70.233 31.403 70.233 70.233v561.644c0.055 38.775-31.403 70.233-70.178 70.233zM933.287 252.976h-510.471l-189.563-140.465v140.52h-142.541v561.644h842.575v-561.644zM231.124 639.147v-70.233h561.753v70.233h-561.753zM231.124 498.736v-70.233h280.876v70.233h-280.876z" />
<glyph unicode="&#xe90e;" glyph-name="operation-preview" d="M1005.796 18.83l-103.652 94.208c35.499 45.739 54.727 101.604 54.727 160.54 0 70.201-27.307 136.192-76.914 185.799s-115.712 76.914-185.913 76.914-136.192-27.307-185.799-76.914-76.914-115.598-76.914-185.799c0-70.201 27.307-136.192 76.914-185.799s115.598-76.914 185.799-76.914c54.5 0 106.496 16.498 150.3 47.104l107.861-98.076c7.623-6.94 17.18-10.354 26.738-10.354 10.809 0 21.618 4.437 29.468 13.084 14.905 16.156 13.653 41.415-2.617 56.206zM510.976 273.579c0 100.921 82.148 183.068 183.068 183.068s183.182-82.148 183.182-183.068-82.148-183.068-183.068-183.068-183.182 82.034-183.182 183.068zM339.74 24.519h-254.862v846.962h728.633v-249.742c0-21.959 17.863-39.822 39.822-39.822s39.822 17.863 39.822 39.822v289.564c0 21.959-17.863 39.822-39.822 39.822h-808.391c-21.959 0-39.822-17.863-39.822-39.822v-926.606c0-21.959 17.863-39.822 39.822-39.822h294.684c21.959 0 39.822 17.863 39.822 39.822s-17.749 39.822-39.708 39.822zM722.7 665.8c0 19.3-15.7 35-35 35h-468c-19.3 0-35-15.7-35-35s15.7-35 35-35h468c19.3 0 35 15.7 35 35zM223.5 453c-19.3 0-35-15.7-35-35s15.7-35 35-35h108.7c19.3 0 35 15.7 35 35s-15.7 35-35 35h-108.7z" />
<glyph unicode="&#xe90f;" glyph-name="operation-see" d="M512 107.8c-220.174 0-419.538 127.701-507.875 325.342l-6.625 14.858 6.625 14.858c88.337 197.642 287.7 325.342 507.875 325.342s419.538-127.701 507.875-325.342l6.625-14.858-6.625-14.857c-88.337-197.642-287.7-325.343-507.875-325.343zM77.751 448c79.779-162.918 248.409-267.298 434.249-267.298s354.47 104.38 434.249 267.298c-79.779 162.918-248.43 267.298-434.249 267.298s-354.47-104.38-434.249-267.298zM512 290.048c-87.213 0-158.172 70.854-158.172 157.952s70.959 157.952 158.172 157.952 158.172-70.865 158.172-157.952-70.959-157.952-158.172-157.952zM512 533.050c-46.956 0-85.176-38.157-85.176-85.050s38.209-85.050 85.176-85.050 85.176 38.157 85.176 85.050-38.22 85.050-85.176 85.050z" />
<glyph unicode="&#xe910;" glyph-name="operation-upload" d="M558.27 782.171v-525.245h-84.053v533.692l-318.859-318.859-59.461 59.461 416.102 416.102 416.102-416.102-59.461-59.461-310.412 310.412zM1011.322 323.17v-291.271c0-45.961-37.259-83.22-83.22-83.22v0h-832.203c-45.961 0-83.22 37.259-83.22 83.22v0 291.271h83.22v-291.271h832.203v291.271h83.22z" />
<glyph unicode="&#xe911;" glyph-name="password_full" d="M879.85 574.975h-106.55v128.425s23.45 256.6-261.3 256.6c0 0-258.287 0-258.287-258.112v-126.912h-109.575c-0.060 0-0.131 0-0.203 0-29.386 0-53.244-23.67-53.547-52.984v-533.104c0-29.087 24.212-52.887 53.75-52.887h735.712c0.060 0 0.132 0 0.203 0 29.36 0 53.201 23.627 53.546 52.905v533.12c-0.346 29.31-24.187 52.938-53.546 52.938-0.072 0-0.143 0-0.215 0h0.011zM350.325 574.975v126.925s-2.050 162.037 166.737 162.037c0 0 159.137 5 159.137-160v-128.962z" />
<glyph unicode="&#xe912;" glyph-name="password" d="M815.768 1.203h-544.745c-42.976 0-77.82 34.846-77.82 77.821v41.343h-0.076l-0.229 306.428h0.304v41.343c0 41.797 33.021 75.636 74.364 77.479l42.273 0.019v0.323h0.094v36.478h-0.191l-0.171 81.203c0 2.184 0.286 4.273 0.647 6.364 2.887 126.031 105.769 227.363 232.512 227.363 128.567 0 232.779-118.547 232.779-247.124 0-0.227-0.019-0.436-0.019-0.664h-2.679c0-0.095 0.038-0.171 0.038-0.265l0.342-1.521c0-21.489-17.403-38.91-38.91-38.91-21.487 0-38.909 17.422-38.909 38.91l-0.343 1.521c0 4.958 1.008 9.652 2.699 14.002-7.43 78.903-73.717 155.016-154.578 155.016-85.497 0-154.807-69.043-155.338-154.426h-0.455c0-0.095 0.038-0.171 0.038-0.265l0.265-117.967 428.452 0.247c41.664-0.17 75.332-33.152 77.137-74.42l0.284-392.855c-0.209-42.786-34.92-77.442-77.763-77.442zM815.712 78.987l-0.038 62.015-0.418-61.71-44.934-0.305h45.39zM815.425 468.099h-0.15l0.17-26.712-0.019 26.712zM737.966 467.206l35.604 0.874-422.067-0.248c-0.894-0.057-1.768-0.266-2.678-0.266-0.894 0-1.749 0.209-2.623 0.266h-22.609l25.232-0.626c-62.433 0-77.821-11.741-77.821-77.82l0.493 78.41h-0.817l0.304-389.112 473.308 0.265c55.648 0.986 70.81 14.971 71.381 75.351l-0.191 243.846c-1.519 57.87-18.143 69.061-77.515 69.061zM271.004 157.793c0-66.079 15.388-79.035 77.821-79.035l-77.309 0.533-0.513 78.502z" />
<glyph unicode="&#xe913;" glyph-name="phone" d="M797.328 880v-864h-564v864h564zM797.328 960h-564c-44.183 0-80-35.817-80-80v0-864c0-44.183 35.817-80 80-80v0h564c44.183 0 80 35.817 80 80v0 864c0 44.183-35.817 80-80 80v0zM182.336 252h666v-80h-666zM568 54h-105.328c-22.091 0-40 17.909-40 40s17.909 40 40 40v0h105.328c22.091 0 40-17.909 40-40s-17.909-40-40-40v0z" />
<glyph unicode="&#xe914;" glyph-name="reset-password" d="M636.173 512.070c37.402 0 67.701-33.051 67.701-73.844v-172.261c0-40.762-30.299-73.812-67.701-73.812h-248.217c-37.37 0-67.701 33.051-67.701 73.812v172.261c0 40.762 30.299 73.844 67.701 73.844h248.217zM511.52 447.76c-35.322 0-63.99-27.388-63.99-61.206 0-22.588 17.533-39.866 36.602-50.488v-79.54h54.807v79.54c19.069 10.622 36.602 27.9 36.602 50.488-0.032 33.819-28.7 61.206-64.022 61.206zM512 639.89c-60.151 0-63.83-50.584-63.99-63.99v-63.798h-64.406v57.623c0 0 0.032 134.379 128.14 134.379 128.14 0 128.14-134.379 128.14-134.379v-57.623h-63.894v63.798c-0.128 13.182-3.839 63.99-63.99 63.99zM512-64c-282.74 0-511.92 229.18-511.92 511.92s229.18 511.92 511.92 511.92c91.122 0 176.612-23.964 250.713-65.718l47.609 65.878 85.235-224.061-223.453 32.795 52.76 73.013c-63.35 34.331-135.755 54.072-212.863 54.072-247.385 0-447.93-200.545-447.93-447.93s200.545-447.93 447.93-447.93 447.93 200.545 447.93 447.93c0 60.407-12.126 117.934-33.787 170.533l59.159 24.348c24.764-60.087 38.618-125.836 38.618-194.882 0-282.708-229.18-511.888-511.92-511.888z" />
<glyph unicode="&#xe915;" glyph-name="scan" d="M392.177-32h-253.723c-58.767 0.065-106.389 47.687-106.454 106.448v251.771h60.831v-251.765c0.027-25.186 20.437-45.596 45.621-45.623h253.725zM885.527-32h-252.763v60.831h252.763c25.186 0.027 45.596 20.437 45.623 45.621v251.768h60.831v-251.765c-0.065-58.767-47.687-106.389-106.448-106.454h-0.006zM991.981 566.815h-60.831v254.73c-0.027 25.186-20.437 45.596-45.621 45.623h-252.765v60.831h252.763c58.767-0.065 106.389-47.687 106.454-106.448v-0.006zM92.831 566.815h-60.831v254.73c0.065 58.767 47.687 106.389 106.448 106.454h253.729v-60.831h-253.723c-25.186-0.027-45.596-20.437-45.623-45.621v-0.003zM32.684 476.747h959.363v-60.831h-959.363z" />
<glyph unicode="&#xe916;" glyph-name="search" d="M1004.734 8.666l-216.026 216.026c63.109 72.818 99.518 169.908 99.518 274.28 0 233.017-191.753 424.77-424.77 424.77s-424.77-194.181-424.77-427.198 191.753-424.77 424.77-424.77c104.372 0 199.035 38.836 274.28 99.518l216.026-216.026c7.282-7.282 16.991-9.709 26.7-9.709s19.418 2.427 26.7 9.709c9.709 14.564 9.709 38.836-2.427 53.4zM463.455 144.593c-194.181 0-351.953 157.772-351.953 351.953s157.772 351.953 351.953 351.953 351.953-157.772 351.953-351.953-157.772-351.953-351.953-351.953z" />
<glyph unicode="&#xe917;" glyph-name="success-filling" d="M512 945.588c-274.28 0-497.588-223.308-497.588-497.588s223.308-497.588 497.588-497.588 497.588 223.308 497.588 497.588-223.308 497.588-497.588 497.588zM783.853 547.518l-317.971-317.971c-12.136-12.136-33.982-14.564-48.545-2.427l-172.335 172.335c-14.564 14.564-14.564 36.409 0 50.972 12.136 12.136 33.982 14.564 48.545 2.427l145.636-145.636 288.844 288.844c12.136 12.136 33.982 14.564 48.545 2.427l2.427-2.427c14.564-14.564 14.564-36.409 4.855-48.545z" />
<glyph unicode="&#xe918;" glyph-name="success" d="M512 948.622c276.48 0 500.622-224.142 500.622-500.622s-224.142-500.622-500.622-500.622-500.622 224.142-500.622 500.622 224.142 500.622 500.622 500.622zM512 880.356c-238.774 0-432.356-193.582-432.356-432.356s193.582-432.356 432.356-432.356 432.356 193.582 432.356 432.356-193.582 432.356-432.356 432.356zM764.496 607.289c0.002 0 0.005 0 0.007 0 5.027 0 9.102-4.075 9.102-9.102 0-2.515-1.020-4.792-2.669-6.44v0l-276.412-276.412c-5.825-5.825-13.244-9.102-20.867-9.853l-3.254-0.159c-8.738 0-17.476 3.345-24.144 10.012l-162.611 162.634c-1.649 1.648-2.67 3.925-2.67 6.44 0 5.027 4.075 9.102 9.102 9.102 0.003 0 0.005 0 0.008 0h70.769c2.506-0.004 4.774-1.021 6.417-2.662v0l103.105-103.083 216.906 216.86c1.647 1.645 3.921 2.662 6.433 2.662 0.003 0 0.005 0 0.008 0h70.769z" />
<glyph unicode="&#xe919;" glyph-name="unit" d="M980.704-8.325h-934.98c-20.025 0-36.166 16.141-36.166 36.166v5.583c0 20.025 16.141 36.166 36.166 36.166h934.98c20.025 0 36.166-16.141 36.166-36.166v-5.583c0-20.025-16.263-36.166-36.166-36.166zM925.605 67.527h-335.811v703.298c0 22.452 21.724 38.593 43.205 32.161l268.576-80.585c14.199-4.248 23.909-17.355 23.909-32.161v-622.713zM791.256 211.585h-67.114c-9.224 0-16.748-7.525-16.748-16.748v-67.235c0-9.224 7.525-16.748 16.748-16.748h67.114c9.224 0 16.748 7.525 16.748 16.748v67.114c0 9.345-7.525 16.869-16.748 16.869zM791.256 358.434h-67.114c-9.224 0-16.748-7.525-16.748-16.748v-67.114c0-9.224 7.525-16.748 16.748-16.748h67.114c9.224 0 16.748 7.525 16.748 16.748v67.114c0 9.345-7.525 16.748-16.748 16.748zM791.256 505.405h-67.114c-9.224 0-16.748-7.525-16.748-16.748v-67.114c0-9.224 7.525-16.748 16.748-16.748h67.114c9.224 0 16.748 7.525 16.748 16.748v67.114c0 9.224-7.525 16.748-16.748 16.748zM791.256 652.254h-67.114c-9.224 0-16.748-7.525-16.748-16.748v-67.114c0-9.224 7.525-16.748 16.748-16.748h67.114c9.224 0 16.748 7.525 16.748 16.748v67.114c0 9.224-7.525 16.748-16.748 16.748zM494.888 903.354l-369.307-113.596c-14.078-4.369-23.666-17.355-23.666-32.040v-690.070h436.543v803.544c-0.121 22.695-21.967 38.836-43.569 32.161zM299.736 127.602c0-9.224-7.525-16.748-16.748-16.748h-67.114c-9.224 0-16.748 7.525-16.748 16.748v67.114c0 9.224 7.525 16.748 16.748 16.748h67.114c9.224 0 16.748-7.525 16.748-16.748v-67.114zM299.736 274.572c0-9.224-7.525-16.748-16.748-16.748h-67.114c-9.224 0-16.748 7.525-16.748 16.748v67.114c0 9.224 7.525 16.748 16.748 16.748h67.114c9.224 0 16.748-7.525 16.748-16.748v-67.114zM299.736 421.422c0-9.224-7.525-16.748-16.748-16.748h-67.114c-9.224 0-16.748 7.525-16.748 16.748v67.114c0 9.224 7.525 16.748 16.748 16.748h67.114c9.224 0 16.748-7.525 16.748-16.748v-67.114zM299.736 568.392c0-9.224-7.525-16.748-16.748-16.748h-67.114c-9.224 0-16.748 7.525-16.748 16.748v67.114c0 9.224 7.525 16.748 16.748 16.748h67.114c9.224 0 16.748-7.525 16.748-16.748v-67.114zM442.338 127.602c0-9.224-7.525-16.748-16.748-16.748h-67.114c-9.224 0-16.748 7.525-16.748 16.748v67.114c0 9.224 7.525 16.748 16.748 16.748h67.114c9.224 0 16.748-7.525 16.748-16.748v-67.114zM442.338 274.572c0-9.224-7.525-16.748-16.748-16.748h-67.114c-9.224 0-16.748 7.525-16.748 16.748v67.114c0 9.224 7.525 16.748 16.748 16.748h67.114c9.224 0 16.748-7.525 16.748-16.748v-67.114zM442.338 421.422c0-9.224-7.525-16.748-16.748-16.748h-67.114c-9.224 0-16.748 7.525-16.748 16.748v67.114c0 9.224 7.525 16.748 16.748 16.748h67.114c9.224 0 16.748-7.525 16.748-16.748v-67.114zM442.338 568.392c0-9.224-7.525-16.748-16.748-16.748h-67.114c-9.224 0-16.748 7.525-16.748 16.748v67.114c0 9.224 7.525 16.748 16.748 16.748h67.114c9.224 0 16.748-7.525 16.748-16.748v-67.114zM328.014 710.387l63.958 110.804 63.958-110.804h-127.917z" />
<glyph unicode="&#xe91a;" glyph-name="user_full" d="M236.627 675.677c0-151.825 123.062-274.766 274.766-274.766s274.766 123.062 274.766 274.766-123.062 274.887-274.766 274.887-274.766-123.062-274.766-274.887zM820.019-37.937c-95.513-16.141-358.506-16.141-543.706-5.825-111.654 5.825-174.884 19.054-195.394 95.513 0 146.971 120.513 354.137 266.028 354.137l114.567-35.317c32.283-5.825 64.686-5.825 96.969 0l121.97 35.317c146.971 0 266.028-208.623 266.028-354.137 2.791-61.774-41.263-76.459-126.46-89.687z" />
<glyph unicode="&#xe91b;" glyph-name="user" d="M858.5 196.4c-18.9 44.8-46.1 85-80.6 119.5s-74.7 61.6-119.5 80.6c-0.4 0.2-0.8 0.3-1.2 0.5 62.3 45 102.8 118.3 102.8 201 0 137-111 248-248 248s-248-111-248-248c0-82.7 40.5-156 102.8-201.1-0.4-0.2-0.8-0.3-1.2-0.5-44.8-18.9-85-46-119.5-80.6-34.5-34.5-61.6-74.7-80.6-119.5-18.6-43.8-28.5-90.3-29.5-138.1-0.1-4.5 3.5-8.2 8-8.2h60c4.4 0 7.9 3.5 8 7.8 2 77.2 33 149.5 87.8 204.3 56.7 56.7 132 87.9 212.2 87.9s155.5-31.2 212.2-87.9c54.8-54.8 85.8-127.1 87.8-204.3 0.1-4.4 3.6-7.8 8-7.8h60c4.5 0 8.1 3.7 8 8.2-1 47.8-10.9 94.3-29.5 138.2zM512 426c-45.9 0-89.1 17.9-121.6 50.4s-50.4 75.7-50.4 121.6c0 45.9 17.9 89.1 50.4 121.6s75.7 50.4 121.6 50.4 89.1-17.9 121.6-50.4 50.4-75.7 50.4-121.6c0-45.9-17.9-89.1-50.4-121.6s-75.7-50.4-121.6-50.4z" />
<glyph unicode="&#xe91c;" glyph-name="verification-code" d="M943.1 788c-2.4 0.2-245.1 25.3-413.8 147.8-5.1 3.7-11 5.6-17.3 5.6-6.2 0-12.2-1.9-17.3-5.6-167.8-121.8-411.4-147.6-413.8-147.8-15.2-1.4-26.6-14.1-26.6-29.3 0-6.7 0.6-165.8 54.8-344.4 32.1-105.8 76.4-196.4 131.9-269.2 70.3-92.3 158.5-156 262-189.2 2.9-0.9 5.9-1.4 9-1.4s6.1 0.5 8.9 1.4c103.6 33.2 191.7 96.8 262 189.2 55.4 72.7 99.8 163.2 131.9 269.2 54.1 178.6 54.8 337.7 54.8 344.4 0.1 15.2-11.3 27.8-26.5 29.3zM910.1 732.8l-0.1-1.6c-2.9-58.1-13.4-174.4-51.4-299.9-66.7-220.1-183.1-360.1-346-416.1l-0.6-0.2-0.6 0.2c-162.4 55.9-278.7 195.4-345.6 414.7-39.8 130.5-49.4 254.2-51.8 301.4l-0.1 1.6 1.5 0.2c70.6 10.3 250.5 44.8 395.5 142.4l0.9 0.7 1-0.7c145.2-97.6 325.1-132.1 395.7-142.5l1.6-0.2zM641.8 609l-174.8-229.3-89 76.1c-5.3 4.5-12.1 7-19.1 7-8.6 0-16.8-3.7-22.4-10.3-10.5-12.3-9.1-31 3.3-41.5l112.7-96.4c5.2-4.4 12.4-7 19.6-7 0.9 0 1.8 0 2.7 0.1 8 0.8 15.4 5 20.3 11.4l193.7 254c4.8 6.3 6.8 14 5.7 21.8-1 7.8-5.1 14.7-11.3 19.5-13.1 10-31.6 7.5-41.4-5.4z" />
<glyph unicode="&#xe91d;" glyph-name="warn" d="M512 948.622c276.48 0 500.622-224.142 500.622-500.622s-224.142-500.622-500.622-500.622-500.622 224.142-500.622 500.622 224.142 500.622 500.622 500.622zM512 880.356c-238.774 0-432.356-193.582-432.356-432.356s193.582-432.356 432.356-432.356 432.356 193.582 432.356 432.356-193.582 432.356-432.356 432.356zM523.378 322.844c0 0 0 0 0.001 0 25.135 0 45.511-20.376 45.511-45.511s-20.376-45.511-45.511-45.511c0 0-0.001 0-0.001 0v0c-25.135 0-45.51 20.376-45.51 45.511s20.376 45.511 45.51 45.511v0zM548.409 698.311c5.006 0 9.102-4.096 9.102-9.102v-300.373c0-5.027-4.075-9.102-9.102-9.102h-50.062c-5.027 0-9.102 4.075-9.102 9.102v0 300.373c0 5.006 4.096 9.102 9.102 9.102h50.062z" />
</font>
</defs>
</svg>
