<?xml version="1.0" standalone="no"?><!DOCTYPE svg PUBLIC "-//W3C//DTD SVG 1.1//EN" "http://www.w3.org/Graphics/SVG/1.1/DTD/svg11.dtd"><svg t="1645168085667" class="icon" viewBox="0 0 1025 1024" version="1.1" xmlns="http://www.w3.org/2000/svg" p-id="1725" xmlns:xlink="http://www.w3.org/1999/xlink" width="64.0625" height="64"><defs><style type="text/css"></style></defs><path d="M5.35103374 525.76343492c0 7.15631275 2.72948679 14.3091291 8.18846151 19.77043398l447.07554987 447.07438479c29.07026091 29.07026091 76.36972203 29.07026091 105.43998409 0 0.14095929-0.14095929 0.28075349-0.28424875 0.41821865-0.42753821l443.98492672-463.41868885c10.68146347-11.14977394 10.30401821-28.84891989-0.84692196-39.53154845s-28.84891989-10.30401821-39.53154845 0.84692196l-443.73329692 463.15657444c-3.50068622 3.4156453-8.11273899 5.29355093-13.01253575 5.29355093-4.97784832 0-9.65979819-1.93964829-13.17912462-5.46013981l-447.07438478-447.07438478c-10.91911339-10.9179483-28.62058951-10.9179483-39.5397029 0C8.08168562 511.45197564 5.35103374 518.60945234 5.35103374 525.76343492z" p-id="1726"></path></svg>