<?xml version="1.0" standalone="no"?><!DOCTYPE svg PUBLIC "-//W3C//DTD SVG 1.1//EN" "http://www.w3.org/Graphics/SVG/1.1/DTD/svg11.dtd"><svg t="1642388148366" class="icon" viewBox="0 0 1024 1024" version="1.1" xmlns="http://www.w3.org/2000/svg" p-id="987" xmlns:xlink="http://www.w3.org/1999/xlink" width="64" height="64"><defs><style type="text/css"></style></defs><path d="M429.14955061 984.24756148L893.11206717 512c165.70089876-165.70089876 74.56540445-339.68684247 0-405.96720197-74.56540445-74.56540445-248.55134815-165.70089876-414.25224692 0L72.89261827 512c-115.99062914 115.99062914-49.71026963 240.2663032 0 289.97657283 49.71026963 49.71026963 173.9859437 115.99062914 289.97657284 0l405.96720198-405.96720197c33.14017975-33.14017975 41.42522469-66.2803595 41.42522469-82.85044938 0-49.71026963-33.14017975-82.85044939-41.42522469-91.13549431-33.14017975-33.14017975-107.70558419-66.2803595-173.9859437 0L188.88324741 627.99062914c-16.57008987 16.57008987-16.57008987 41.42522469 0 57.99531456 16.57008987 16.57008987 41.42522469 16.57008987 57.99531456 0l405.96720198-405.96720197c24.85513482-24.85513482 41.42522469-16.57008987 57.99531457 0 0 0 33.14017975 24.85513482 0 57.99531457l-405.96720199 405.96720197c-82.85044939 82.85044939-157.41585383 16.57008987-173.9859437 0-16.57008987-16.57008987-82.85044939-91.13549431 0-173.9859437l405.96720199-405.96720198c140.84576395-140.84576395 281.6915279-16.57008987 289.97657283 0 16.57008987 16.57008987 140.84576395 149.13080889 0 289.97657284L371.15423605 926.25224691l0 0c-16.57008987 16.57008987-16.57008987 41.42522469 0 57.99531457C387.72432592 1000.81765136 412.57946075 1000.81765136 429.14955061 984.24756148L429.14955061 984.24756148 429.14955061 984.24756148C429.14955061 984.24756148 429.14955061 984.24756148 429.14955061 984.24756148 429.14955061 984.24756148 429.14955061 984.24756148 429.14955061 984.24756148z" fill="#207cff" p-id="988"></path></svg>