<?xml version="1.0" standalone="no"?><!DOCTYPE svg PUBLIC "-//W3C//DTD SVG 1.1//EN" "http://www.w3.org/Graphics/SVG/1.1/DTD/svg11.dtd"><svg t="1643007274665" class="icon" viewBox="0 0 1024 1024" version="1.1" xmlns="http://www.w3.org/2000/svg" p-id="1388" xmlns:xlink="http://www.w3.org/1999/xlink" width="64" height="64"><defs><style type="text/css"></style></defs><path d="M94.54933333 171.57688889h109.34044445V211.62666667h-109.34044445z" fill="#333333" p-id="1389"></path><path d="M912.04266667 244.62222222H778.12622222c-13.65333333 0-26.39644445-6.82666667-33.90577777-18.20444444l-57.344-86.016c-7.50933333-11.37777778-20.25244445-18.20444445-33.90577778-18.20444445H370.688c-13.65333333 0-26.39644445 6.82666667-33.90577778 18.20444445L279.552 226.41777778c-7.50933333 11.37777778-20.25244445 18.20444445-33.90577778 18.20444444H111.95733333c-60.416 0-109.34044445 49.03822222-109.34044444 109.34044445v438.38577778c0 60.416 49.03822222 109.34044445 109.34044444 109.34044444h800.08533334c60.416 0 109.34044445-49.03822222 109.34044444-109.34044444V353.96266667c0-60.30222222-48.92444445-109.34044445-109.34044444-109.34044445zM512 821.13422222c-129.13777778 0-234.38222222-105.01688889-234.38222222-234.38222222 0-129.13777778 105.13066667-234.38222222 234.38222222-234.38222222 129.13777778 0 234.38222222 105.13066667 234.38222222 234.38222222s-105.24444445 234.38222222-234.38222222 234.38222222z m333.02755555-469.78844444c0 17.97688889-14.56355555 32.42666667-32.54044444 32.54044444h-0.56888889c-17.97688889 0-32.54044445-14.56355555-32.54044444-32.54044444v-0.56888889c0-17.97688889 14.56355555-32.54044445 32.54044444-32.54044444h0.56888889c17.97688889 0 32.54044445 14.56355555 32.54044444 32.54044444v0.56888889z" fill="#333333" p-id="1390"></path><path d="M512 416.6c-89 0-161.2 72.2-161.2 161.2C350.8 666.9 423 739 512 739c89.1 0 161.2-72.1 161.2-161.2 0-89-72.1-161.2-161.2-161.2z" fill="#333333" p-id="1391"></path></svg>