<?xml version="1.0" standalone="no"?><!DOCTYPE svg PUBLIC "-//W3C//DTD SVG 1.1//EN" "http://www.w3.org/Graphics/SVG/1.1/DTD/svg11.dtd"><svg t="1642646219813" class="icon" viewBox="0 0 1024 1024" version="1.1" xmlns="http://www.w3.org/2000/svg" p-id="4870" xmlns:xlink="http://www.w3.org/1999/xlink" width="64" height="64"><defs><style type="text/css"></style></defs><path d="M844.66 60A119.48 119.48 0 0 1 964 179.34v665.32A119.48 119.48 0 0 1 844.66 964H179.34A119.48 119.48 0 0 1 60 844.66V179.34A119.48 119.48 0 0 1 179.34 60h665.32m0-60H179.34A179.32 179.32 0 0 0 0 179.34v665.32A179.34 179.34 0 0 0 179.34 1024h665.32A179.34 179.34 0 0 0 1024 844.66V179.34A179.32 179.32 0 0 0 844.66 0z" p-id="4871"></path></svg>