<?xml version="1.0" standalone="no"?><!DOCTYPE svg PUBLIC "-//W3C//DTD SVG 1.1//EN" "http://www.w3.org/Graphics/SVG/1.1/DTD/svg11.dtd"><svg t="1645068532932" class="icon" viewBox="0 0 1024 1024" version="1.1" xmlns="http://www.w3.org/2000/svg" p-id="1665" xmlns:xlink="http://www.w3.org/1999/xlink" width="64" height="64"><defs><style type="text/css"></style></defs><path d="M583.18923023 513.96072033l416.77875601-414.61693619c19.70775301-19.60720323 19.80830276-51.38092747 0.20109952-71.08868046-19.65747811-19.75802788-51.38092747-19.80830276-71.08868046-0.20109953l-416.87930577 414.66721106-413.25951442-414.51638641C79.38465675 8.59762556 47.56065763 8.49707581 27.85290464 28.10427905 8.19542652 47.71148227 8.14515163 79.53548139 27.75235487 99.24323438l413.15896467 414.41583666L24.33366304 928.02463281c-19.70775301 19.60720323-19.80830276 51.38092747-0.20109953 71.08868048 9.80360162 9.85387649 22.72424581 14.83108963 35.64488999 14.83108962 12.82009443 0 25.64018885-4.87666336 35.44379047-14.6299901l416.67820627-414.46611154 417.03013042 418.28700241c9.80360162 9.85387649 22.67397092 14.78081473 35.59461513 14.78081475 12.87036929 0 25.69046372-4.92693825 35.49406535-14.68026499 19.65747811-19.60720323 19.70775301-51.38092747 0.10054975-71.08868044L583.18923023 513.96072033z" p-id="1666"></path></svg>