<?xml version="1.0" standalone="no"?><!DOCTYPE svg PUBLIC "-//W3C//DTD SVG 1.1//EN" "http://www.w3.org/Graphics/SVG/1.1/DTD/svg11.dtd"><svg t="1642391945783" class="icon" viewBox="0 0 1024 1024" version="1.1" xmlns="http://www.w3.org/2000/svg" p-id="1713" xmlns:xlink="http://www.w3.org/1999/xlink" width="64" height="64"><defs><style type="text/css"></style></defs><path d="M512 11.37777813c276.48 0 500.62222187 224.14222187 500.62222187 500.62222187s-224.14222187 500.62222187-500.62222187 500.62222187S11.37777813 788.48 11.37777813 512 235.52 11.37777813 512 11.37777813z m0 68.26666667C273.2259552 79.6444448 79.6444448 273.2259552 79.6444448 512s193.58151147 432.3555552 432.3555552 432.3555552 432.3555552-193.58151147 432.3555552-432.3555552S750.7740448 79.6444448 512 79.6444448z m-111.72977813 273.06666667a9.10222187 9.10222187 0 0 1 6.43982293 2.6624L512 460.64071147l105.2672-105.2672a9.10222187 9.10222187 0 0 1 6.43982187-2.6624h70.76977813a9.10222187 9.10222187 0 0 1 6.43982187 15.54204373l-140.62933334 140.6520896 146.8188448 146.8416a9.10222187 9.10222187 0 0 1-6.43982186 15.54204373h-70.76977814a9.10222187 9.10222187 0 0 1-6.43982186-2.6624L512 557.16977813l-111.47946667 111.4567104a9.10222187 9.10222187 0 0 1-6.43982186 2.6624h-70.76977814a9.10222187 9.10222187 0 0 1-6.41706666-15.54204373l146.8416-146.8416-140.65208854-140.6520896A9.10222187 9.10222187 0 0 1 329.5004448 352.71111147h70.76977707z" fill="#333333" p-id="1714"></path></svg>