<?xml version="1.0" standalone="no"?><!DOCTYPE svg PUBLIC "-//W3C//DTD SVG 1.1//EN" "http://www.w3.org/Graphics/SVG/1.1/DTD/svg11.dtd"><svg t="1642388157660" class="icon" viewBox="0 0 1024 1024" version="1.1" xmlns="http://www.w3.org/2000/svg" p-id="1282" xmlns:xlink="http://www.w3.org/1999/xlink" width="64" height="64"><defs><style type="text/css"></style></defs><path d="M511.15045973 995.75277013a482.96391147 482.96391147 0 0 1-342.6683264-141.99466666A482.96391147 482.96391147 0 0 1 26.54814827 511.21114027 482.90322987 482.90322987 0 0 1 168.54281493 168.54281493 482.96391147 482.96391147 0 0 1 511.08977813 26.54814827a482.96391147 482.96391147 0 0 1 342.66832534 141.99466666 482.96391147 482.96391147 0 0 1 141.99466666 342.6076448 482.96391147 482.96391147 0 0 1-141.99466666 342.66832534 482.96391147 482.96391147 0 0 1-342.66832534 141.99466666z m0-900.39182186c-111.04711147 0-215.41925973 43.26589653-294.00177813 121.78773333a413.0588448 413.0588448 0 0 0-121.78773333 294.00177813c0 111.04711147 43.26589653 215.47994027 121.78773333 294.00177707a413.0588448 413.0588448 0 0 0 294.00177813 121.78773333c111.04711147 0 215.47994027-43.26589653 294.00177707-121.78773333a413.0588448 413.0588448 0 0 0 121.78773333-294.00177707c0-111.04711147-43.26589653-215.41925973-121.78773333-294.00177813a413.0588448 413.0588448 0 0 0-294.00177707-121.78773333z m0 113.1709632c16.74808853 0 39.92841493 14.5635552 39.92841387 34.1636736v353.9550816c0 19.5394368-23.1803264 35.01321493-39.92841387 35.01321493s-39.92841493-15.47377813-39.92841493-35.01321493V242.69558507c0-19.6001184 23.1803264-34.1636736 39.92841493-34.1636736z m5.33997014 603.17392533a60.6814816 60.6814816 0 1 1 0-121.3629632 60.6814816 60.6814816 0 0 1 0 121.3629632z" fill="#207cff" p-id="1283"></path></svg>