<?xml version="1.0" standalone="no"?><!DOCTYPE svg PUBLIC "-//W3C//DTD SVG 1.1//EN" "http://www.w3.org/Graphics/SVG/1.1/DTD/svg11.dtd"><svg t="1643016975662" class="icon" viewBox="0 0 1024 1024" version="1.1" xmlns="http://www.w3.org/2000/svg" p-id="1572" xmlns:xlink="http://www.w3.org/1999/xlink" width="64" height="64"><defs><style type="text/css"></style></defs><path d="M928 928H96a96 96 0 0 1-96-96V192a96 96 0 0 1 96-96h832a96 96 0 0 1 96 96v640a96 96 0 0 1-96 96z m32-736a32 32 0 0 0-32-32H96a32 32 0 0 0-32 32v640a32 32 0 0 0 32 32h832a32 32 0 0 0 32-32V192zM608 544h288v64h-288v-64z m0-160h160v64h-160v-64z m-160 288a128 128 0 1 0-256 0v32H128v-32a191.168 191.168 0 0 1 99.872-167.456 128 128 0 1 1 184.288 0A191.168 191.168 0 0 1 512 672v32h-64v-32z m-128-320a64 64 0 1 0 64 64 64 64 0 0 0-64-64z" p-id="1573"></path></svg>