<?xml version="1.0" standalone="no"?><!DOCTYPE svg PUBLIC "-//W3C//DTD SVG 1.1//EN" "http://www.w3.org/Graphics/SVG/1.1/DTD/svg11.dtd"><svg t="1642585231898" class="icon" viewBox="0 0 1024 1024" version="1.1" xmlns="http://www.w3.org/2000/svg" p-id="1579" xmlns:xlink="http://www.w3.org/1999/xlink" width="64" height="64"><defs><style type="text/css"></style></defs><path d="M1005.79555555 941.16977778l-103.65155555-94.208c35.49866667-45.73866667 54.72711111-101.60355555 54.72711111-160.54044445 0-70.20088889-27.30666667-136.192-76.91377778-185.79911111S764.24533333 423.70844445 694.04444445 423.70844445s-136.192 27.30666667-185.79911112 76.91377777-76.91377778 115.59822222-76.91377778 185.79911111c0 70.20088889 27.30666667 136.192 76.91377778 185.79911112 49.60711111 49.60711111 115.59822222 76.91377778 185.79911112 76.91377777 54.49955555 0 106.496-16.49777778 150.30044444-47.104l107.86133333 98.07644445c7.62311111 6.94044445 17.18044445 10.35377778 26.73777778 10.35377778 10.80888889 0 21.61777778-4.43733333 29.46844445-13.08444445 14.90488889-16.15644445 13.65333333-41.41511111-2.6168889-56.20622222zM510.976 686.42133333c0-100.92088889 82.14755555-183.06844445 183.06844445-183.06844444s183.18222222 82.14755555 183.18222222 183.06844444-82.14755555 183.06844445-183.06844445 183.06844445-183.18222222-82.03377778-183.18222222-183.06844445z" p-id="1580"></path><path d="M339.74044445 935.48088889h-254.86222223V88.51911111H813.51111111v249.74222222c0 21.95911111 17.86311111 39.82222222 39.82222222 39.82222222s39.82222222-17.86311111 39.82222222-39.82222222V48.69688889c0-21.95911111-17.86311111-39.82222222-39.82222222-39.82222222H44.94222222c-21.95911111 0-39.82222222 17.86311111-39.82222222 39.82222222v926.60622222c0 21.95911111 17.86311111 39.82222222 39.82222222 39.82222222h294.68444445c21.95911111 0 39.82222222-17.86311111 39.82222222-39.82222222s-17.74933333-39.82222222-39.70844444-39.82222222z" p-id="1581"></path><path d="M722.7 294.2c0-19.3-15.7-35-35-35h-468c-19.3 0-35 15.7-35 35s15.7 35 35 35h468c19.3 0 35-15.7 35-35zM223.5 507c-19.3 0-35 15.7-35 35s15.7 35 35 35h108.7c19.3 0 35-15.7 35-35s-15.7-35-35-35H223.5z" p-id="1582"></path></svg>