<?xml version="1.0" standalone="no"?><!DOCTYPE svg PUBLIC "-//W3C//DTD SVG 1.1//EN" "http://www.w3.org/Graphics/SVG/1.1/DTD/svg11.dtd"><svg t="1642585228626" class="icon" viewBox="0 0 1024 1024" version="1.1" xmlns="http://www.w3.org/2000/svg" p-id="1433" xmlns:xlink="http://www.w3.org/1999/xlink" width="64" height="64"><defs><style type="text/css"></style></defs><path d="M512 852.2c-220.1745 0-419.538-127.701-507.8745-325.3425L-2.5 512l6.6255-14.8575C92.462 299.501 291.8255 171.8 512 171.8s419.538 127.701 507.8745 325.3425L1026.5 512l-6.6255 14.8575C931.538 724.499 732.1745 852.2 512 852.2zM77.7515 512C157.5305 674.918 326.1605 779.2985 512 779.2985S866.4695 674.918 946.2485 512C866.4695 349.082 697.8185 244.7015 512 244.7015S157.5305 349.082 77.7515 512zM512 669.9515c-87.213 0-158.172-70.854-158.172-157.9515S424.787 354.0485 512 354.0485 670.172 424.913 670.172 512 599.213 669.9515 512 669.9515zM512 426.95c-46.956 0-85.176 38.157-85.176 85.05s38.2095 85.05 85.176 85.05 85.176-38.157 85.176-85.05-38.22-85.05-85.176-85.05z" p-id="1434"></path></svg>