<?xml version="1.0" standalone="no"?><!DOCTYPE svg PUBLIC "-//W3C//DTD SVG 1.1//EN" "http://www.w3.org/Graphics/SVG/1.1/DTD/svg11.dtd"><svg t="1643016995319" class="icon" viewBox="0 0 1024 1024" version="1.1" xmlns="http://www.w3.org/2000/svg" p-id="2176" xmlns:xlink="http://www.w3.org/1999/xlink" width="64" height="64"><defs><style type="text/css"></style></defs><path d="M797.328 80v864h-564V80h564m0-80h-564a80 80 0 0 0-80 80v864a80 80 0 0 0 80 80h564a80 80 0 0 0 80-80V80a80 80 0 0 0-80-80z" p-id="2177"></path><path d="M182.336 708h666v80H182.336zM568 906h-105.328a40 40 0 1 1 0-80H568a40 40 0 1 1 0 80z" p-id="2178"></path></svg>