<?xml version="1.0" standalone="no"?><!DOCTYPE svg PUBLIC "-//W3C//DTD SVG 1.1//EN" "http://www.w3.org/Graphics/SVG/1.1/DTD/svg11.dtd"><svg t="1642506849359" class="icon" viewBox="0 0 1024 1024" version="1.1" xmlns="http://www.w3.org/2000/svg" p-id="1311" xmlns:xlink="http://www.w3.org/1999/xlink" width="64" height="64"><defs><style type="text/css"></style></defs><path d="M392.17702812 992H138.45439156a106.56844969 106.56844969 0 0 1-106.45439156-106.45439156V633.7809725h60.83108063v251.76463594a45.67083469 45.67083469 0 0 0 45.62331093 45.62331094h253.72263657zM885.52659875 992H632.76395281v-60.83108063h252.76264594a45.67083469 45.67083469 0 0 0 45.62331094-45.62331093V633.7809725h60.83108062v251.76463594a106.56844969 106.56844969 0 0 1-106.45439156 106.45439156zM991.98099031 393.1845425h-60.83108062v-254.73015094a45.67083469 45.67083469 0 0 0-45.62331094-45.62331093H632.76395281v-60.83108063h252.76264594a106.56844969 106.56844969 0 0 1 106.45439156 106.45439156zM92.83108062 393.1845425H32v-254.73015094a106.56844969 106.56844969 0 0 1 106.45439156-106.45439156h253.72263656v60.83108063H138.45439156a45.67083469 45.67083469 0 0 0-45.62331093 45.62331093zM32.68434969 483.25256187h959.363175v60.83108063H32.68434969z" fill="#333333" p-id="1312"></path></svg>