<?xml version="1.0" standalone="no"?><!DOCTYPE svg PUBLIC "-//W3C//DTD SVG 1.1//EN" "http://www.w3.org/Graphics/SVG/1.1/DTD/svg11.dtd"><svg t="1642506844541" class="icon" viewBox="0 0 1024 1024" version="1.1" xmlns="http://www.w3.org/2000/svg" p-id="1165" xmlns:xlink="http://www.w3.org/1999/xlink" width="64" height="64"><defs><style type="text/css"></style></defs><path d="M1004.73363001 951.33392555l-216.02607446-216.02607332c63.10874112-72.81777778 99.51763001-169.90814777 99.51763002-274.28029668 0-233.01688889-191.7534811-424.77036999-424.77037114-424.77036998S38.68444445 230.43792555 38.68444445 463.45481443 230.43792555 888.22518557 463.45481443 888.22518557c104.37214777 0 199.03525888-38.83614777 274.28029668-99.51763002l216.02607446 216.02607446c7.28177778 7.28177778 16.99081443 9.70903666 26.69985109 9.70903666s19.41807445-2.42725888 26.69985223-9.70903666c9.70903666-14.56355555 9.70903666-38.83614777-2.42725888-53.39970446zM463.45481443 815.40740779C269.27407445 815.40740779 111.50222222 657.63555555 111.50222222 463.45481443S269.27407445 111.50222222 463.45481443 111.50222222 815.40740779 269.27407445 815.40740779 463.45481443 657.63555555 815.40740779 463.45481443 815.40740779z" p-id="1166"></path></svg>