<?xml version="1.0" standalone="no"?><!DOCTYPE svg PUBLIC "-//W3C//DTD SVG 1.1//EN" "http://www.w3.org/Graphics/SVG/1.1/DTD/svg11.dtd"><svg t="1642391941833" class="icon" viewBox="0 0 1024 1024" version="1.1" xmlns="http://www.w3.org/2000/svg" p-id="1567" xmlns:xlink="http://www.w3.org/1999/xlink" width="64" height="64"><defs><style type="text/css"></style></defs><path d="M512 11.37777813c276.48 0 500.62222187 224.14222187 500.62222187 500.62222187s-224.14222187 500.62222187-500.62222187 500.62222187S11.37777813 788.48 11.37777813 512 235.52 11.37777813 512 11.37777813z m0 68.26666667C273.2259552 79.6444448 79.6444448 273.2259552 79.6444448 512s193.58151147 432.3555552 432.3555552 432.3555552 432.3555552-193.58151147 432.3555552-432.3555552S750.7740448 79.6444448 512 79.6444448z m252.4956448 273.06666667a9.10222187 9.10222187 0 0 1 6.43982187 15.54204373L494.52373333 644.66488853c-5.82542187 5.82542187-13.24373333 9.10222187-20.8668448 9.85315627l-3.25404373 0.15928853c-8.73813333 0-17.47626667-3.34506667-24.1436448-10.0124448l-162.6112-162.6339552a9.10222187 9.10222187 0 0 1 6.43982187-15.5420448h70.76977813a9.10222187 9.10222187 0 0 1 6.41706667 2.6624l103.10542186 103.08266667 216.90595627-216.86044373a9.10222187 9.10222187 0 0 1 6.43982187-2.6624h70.76977813z" fill="#333333" p-id="1568"></path></svg>