<?xml version="1.0" standalone="no"?><!DOCTYPE svg PUBLIC "-//W3C//DTD SVG 1.1//EN" "http://www.w3.org/Graphics/SVG/1.1/DTD/svg11.dtd"><svg t="1643016990563" class="icon" viewBox="0 0 1024 1024" version="1.1" xmlns="http://www.w3.org/2000/svg" p-id="2026" xmlns:xlink="http://www.w3.org/1999/xlink" width="64" height="64"><defs><style type="text/css"></style></defs><path d="M236.62743703 284.32308148c0 151.82506667 123.06204445 274.76574815 274.76574815 274.76574815s274.76574815-123.06204445 274.76574815-274.76574815S663.09688889 9.43597037 511.39318518 9.43597037 236.62743703 132.49801482 236.62743703 284.32308148z" p-id="2027"></path><path d="M820.0192 997.9373037c-95.51265185 16.14127408-358.50619259 16.14127408-543.70607408 5.82542222-111.65392592-5.82542222-174.88402963-19.05398518-195.39437037-95.51265184 0-146.97054815 120.51342222-354.13712592 266.02761482-354.13712593l114.56663704 35.31662222c32.28254815 5.82542222 64.68645925 5.82542222 96.96900741 0l121.96977777-35.31662222c146.97054815 0 266.02761482 208.62293333 266.02761482 354.13712593 2.79134815 61.77374815-41.26340741 76.45866667-126.46020741 89.68722962z" p-id="2028"></path></svg>