<?xml version="1.0" standalone="no"?><!DOCTYPE svg PUBLIC "-//W3C//DTD SVG 1.1//EN" "http://www.w3.org/Graphics/SVG/1.1/DTD/svg11.dtd"><svg t="1642391938288" class="icon" viewBox="0 0 1024 1024" version="1.1" xmlns="http://www.w3.org/2000/svg" p-id="1421" xmlns:xlink="http://www.w3.org/1999/xlink" width="64" height="64"><defs><style type="text/css"></style></defs><path d="M512 11.37777813c276.48 0 500.62222187 224.14222187 500.62222187 500.62222187s-224.14222187 500.62222187-500.62222187 500.62222187S11.37777813 788.48 11.37777813 512 235.52 11.37777813 512 11.37777813z m0 68.26666667C273.2259552 79.6444448 79.6444448 273.2259552 79.6444448 512s193.58151147 432.3555552 432.3555552 432.3555552 432.3555552-193.58151147 432.3555552-432.3555552S750.7740448 79.6444448 512 79.6444448z m11.37777813 557.5111104a45.51111147 45.51111147 0 1 1 0 91.02222293 45.51111147 45.51111147 0 0 1 0-91.02222293zM548.40888853 261.68888853c5.00622187 0 9.10222187 4.096 9.10222294 9.10222294v300.37333333a9.10222187 9.10222187 0 0 1-9.10222294 9.10222187h-50.06222186a9.10222187 9.10222187 0 0 1-9.10222187-9.10222187V270.79111147c0-5.00622187 4.096-9.10222187 9.10222187-9.10222294h50.06222186z" fill="#333333" p-id="1422"></path></svg>